<svg xmlns="http://www.w3.org/2000/svg">
  <defs>
    <!-- astro icon -->
    <symbol id="astro" viewBox="0 0 85 107">
      <path d="M27.5894 91.1365C22.7555 86.7178 21.3444 77.4335 23.3583 70.7072C26.8503 74.948 31.6888 76.2914 36.7005 77.0497C44.4375 78.2199 52.0359 77.7822 59.2232 74.2459C60.0454 73.841 60.8052 73.3027 61.7036 72.7574C62.378 74.714 62.5535 76.6892 62.318 78.6996C61.7452 83.5957 59.3086 87.3778 55.4332 90.2448C53.8835 91.3916 52.2437 92.4167 50.6432 93.4979C45.7262 96.8213 44.3959 100.718 46.2435 106.386C46.2874 106.525 46.3267 106.663 46.426 107C43.9155 105.876 42.0817 104.24 40.6845 102.089C39.2087 99.8193 38.5066 97.3081 38.4696 94.5909C38.4511 93.2686 38.4511 91.9345 38.2733 90.6309C37.8391 87.4527 36.3471 86.0297 33.5364 85.9478C30.6518 85.8636 28.37 87.6469 27.7649 90.4554C27.7187 90.6707 27.6517 90.8837 27.5847 91.1341L27.5894 91.1365Z" fill="#F041FF"/>
      <path d="M0 69.5866C0 69.5866 14.3139 62.6137 28.6678 62.6137L39.4901 29.1204C39.8953 27.5007 41.0783 26.3999 42.4139 26.3999C43.7495 26.3999 44.9325 27.5007 45.3377 29.1204L56.1601 62.6137C73.1601 62.6137 84.8278 69.5866 84.8278 69.5866C84.8278 69.5866 60.5145 3.35233 60.467 3.21944C59.7692 1.2612 58.5911 0 57.0029 0H27.8274C26.2392 0 25.1087 1.2612 24.3634 3.21944C24.3108 3.34983 0 69.5866 0 69.5866Z" fill="currentColor"/>
    </symbol>

    <!-- javascript icon -->
    <symbol id="javascript" viewBox="0 0 630 630">
      <rect width="630" height="630" fill="#f7df1e"/>
      <path fill="black" d="m423.2 492.19c12.69 20.72 29.2 35.95 58.4 35.95 24.53 0 40.2-12.26 40.2-29.2 0-20.3-16.1-27.49-43.1-39.3l-14.8-6.35c-42.72-18.2-71.1-41-71.1-89.2 0-44.4 33.83-78.2 86.7-78.2 37.64 0 64.7 13.1 84.2 47.4l-46.1 29.6c-10.15-18.2-21.1-25.37-38.1-25.37-17.34 0-28.33 11-28.33 25.37 0 17.76 11 24.95 36.4 35.95l14.8 6.34c50.3 21.57 78.7 43.56 78.7 93 0 53.3-41.87 82.5-98.1 82.5-54.98 0-90.5-26.2-107.88-60.54zm-209.13 5.13c9.3 16.5 17.76 30.45 38.1 30.45 19.45 0 31.72-7.61 31.72-37.2v-201.3h59.2v202.1c0 61.3-35.94 89.2-88.4 89.2-47.4 0-74.85-24.53-88.81-54.075z"/>
    </symbol>

    <!-- typescript icon -->
    <symbol id="typescript" fill="none" viewBox="0 0 512 512">
      <rect fill="#3178c6" height="512" rx="50" width="512"/>
      <rect fill="#3178c6" height="512" rx="50" width="512"/>
      <path clip-rule="evenodd" fill="#fff" fill-rule="evenodd" d="m316.939 407.424v50.061c8.138 4.172 17.763 7.3 28.875 9.386s22.823 3.129 35.135 3.129c11.999 0 23.397-1.147 34.196-3.442 10.799-2.294 20.268-6.075 28.406-11.342 8.138-5.266 14.581-12.15 19.328-20.65s7.121-19.007 7.121-31.522c0-9.074-1.356-17.026-4.069-23.857s-6.625-12.906-11.738-18.225c-5.112-5.319-11.242-10.091-18.389-14.315s-15.207-8.213-24.18-11.967c-6.573-2.712-12.468-5.345-17.685-7.9-5.217-2.556-9.651-5.163-13.303-7.822-3.652-2.66-6.469-5.476-8.451-8.448-1.982-2.973-2.974-6.336-2.974-10.091 0-3.441.887-6.544 2.661-9.308s4.278-5.136 7.512-7.118c3.235-1.981 7.199-3.52 11.894-4.615 4.696-1.095 9.912-1.642 15.651-1.642 4.173 0 8.581.313 13.224.938 4.643.626 9.312 1.591 14.008 2.894 4.695 1.304 9.259 2.947 13.694 4.928 4.434 1.982 8.529 4.276 12.285 6.884v-46.776c-7.616-2.92-15.937-5.084-24.962-6.492s-19.381-2.112-31.066-2.112c-11.895 0-23.163 1.278-33.805 3.833s-20.006 6.544-28.093 11.967c-8.086 5.424-14.476 12.333-19.171 20.729-4.695 8.395-7.043 18.433-7.043 30.114 0 14.914 4.304 27.638 12.912 38.172 8.607 10.533 21.675 19.45 39.204 26.751 6.886 2.816 13.303 5.579 19.25 8.291s11.086 5.528 15.415 8.448c4.33 2.92 7.747 6.101 10.252 9.543 2.504 3.441 3.756 7.352 3.756 11.733 0 3.233-.783 6.231-2.348 8.995s-3.939 5.162-7.121 7.196-7.147 3.624-11.894 4.771c-4.748 1.148-10.303 1.721-16.668 1.721-10.851 0-21.597-1.903-32.24-5.71-10.642-3.806-20.502-9.516-29.579-17.13zm-84.159-123.342h64.22v-41.082h-179v41.082h63.906v182.918h50.874z"/>
    </symbol>

    <!-- tailwind icon -->
    <symbol id="tailwind" viewBox="0 0 47 40" fill="none">
      <path fill="#6366f1" d="M23.5 6.5C17.5 6.5 13.75 9.5 12.25 15.5C14.5 12.5 17.125 11.375 20.125 12.125C21.8367 12.5529 23.0601 13.7947 24.4142 15.1692C26.6202 17.4084 29.1734 20 34.75 20C40.75 20 44.5 17 46 11C43.75 14 41.125 15.125 38.125 14.375C36.4133 13.9471 35.1899 12.7053 33.8357 11.3308C31.6297 9.09158 29.0766 6.5 23.5 6.5ZM12.25 20C6.25 20 2.5 23 1 29C3.25 26 5.875 24.875 8.875 25.625C10.5867 26.0529 11.8101 27.2947 13.1642 28.6693C15.3702 30.9084 17.9234 33.5 23.5 33.5C29.5 33.5 33.25 30.5 34.75 24.5C32.5 27.5 29.875 28.625 26.875 27.875C25.1633 27.4471 23.9399 26.2053 22.5858 24.8307C20.3798 22.5916 17.8266 20 12.25 20Z"/>
    </symbol>

    <!-- python icon -->
    <symbol id="python" viewBox="0 0 24 24">
      <path fill="#3776AB" d="M14.25.18l.9.2.73.26.59.3.45.32.34.34.25.34.16.33.1.3.04.26.02.2-.01.13V8.5l-.05.63-.13.55-.21.46-.26.38-.3.31-.33.25-.35.19-.35.14-.33.1-.3.07-.26.04-.21.02H8.77l-.69.05-.59.14-.5.22-.41.27-.33.32-.27.35-.2.36-.15.37-.1.35-.07.32-.04.27-.02.21v3.06H3.17l-.21-.03-.28-.07-.32-.12-.35-.18-.36-.26-.36-.36-.35-.46-.32-.59-.28-.73-.21-.88-.14-1.05L0 11.97l.06-1.22.16-1.04.24-.87.32-.71.36-.57.4-.44.42-.33.42-.24.4-.16.36-.1.32-.05.24-.01h.16l.06.01h8.16v-.83H6.18l-.01-2.75-.02-.37.05-.34.11-.31.17-.28.25-.26.31-.23.38-.2.44-.18.51-.15.58-.12.64-.1.71-.06.77-.04.84-.02 1.27.05zm-6.3 1.98l-.23.33-.08.41.08.41.23.34.33.22.41.09.41-.09.33-.22.23-.34.08-.41-.08-.41-.23-.33-.33-.22-.41-.09-.41.09zm13.09 3.95l.28.06.32.12.35.18.36.27.36.35.35.47.32.59.28.73.21.88.14 1.04.05 1.2-.06 1.23-.16 1.04-.24.86-.32.71-.36.57-.4.45-.42.33-.42.24-.4.16-.36.09-.32.05-.24.02-.16-.01h-8.22v.82h5.84l.01 2.76.02.36-.05.34-.11.31-.17.29-.25.25-.31.24-.38.2-.44.17-.51.15-.58.13-.64.09-.71.07-.77.04-.84.01-1.27-.04-1.07-.14-.9-.2-.73-.25-.59-.3-.45-.33-.34-.34-.25-.34-.16-.33-.1-.3-.04-.25-.02-.2.01-.13v-5.34l.05-.64.13-.54.21-.46.26-.38.3-.32.33-.24.35-.2.35-.14.33-.1.3-.06.26-.04.21-.02.13-.01h5.84l.69-.05.59-.14.5-.21.41-.28.33-.32.27-.35.2-.36.15-.36.1-.35.07-.32.04-.28.02-.21V6.07h2.09l.14.01zm-6.47 14.25l-.23.33-.08.41.08.41.23.33.33.23.41.08.41-.08.33-.23.23-.33.08-.41-.08-.41-.23-.33-.33-.23-.41-.08-.41.08z"/>
    </symbol>

    <!-- fastapi icon -->
    <symbol id="fastapi" viewBox="0 0 24 24">
      <circle cx="12" cy="12" r="12" fill="#009688"/>
      <path fill="white" d="M13 2l-7 11h6l-1 9 7-11h-6z"/>
    </symbol>

    <!-- postgresql icon -->
    <symbol id="postgresql" viewBox="0 0 24 24">
      <ellipse cx="12" cy="6" rx="8" ry="3.5" fill="#4a8fc0"/>
      <path fill="#336791" d="M4 6v12c0 1.93 3.58 3.5 8 3.5s8-1.57 8-3.5V6c0 1.93-3.58 3.5-8 3.5S4 7.93 4 6z"/>
      <ellipse cx="12" cy="6" rx="8" ry="3.5" fill="#4a8fc0"/>
    </symbol>

    <!-- docker icon -->
    <symbol id="docker" viewBox="0 0 24 24">
      <path fill="#2496ED" d="M13.983 11.078h2.119a.186.186 0 00.186-.185V9.006a.186.186 0 00-.186-.186h-2.119a.185.185 0 00-.185.185v1.888c0 .102.083.185.185.185m-2.954-5.43h2.118a.186.186 0 00.186-.186V3.574a.186.186 0 00-.186-.185h-2.118a.185.185 0 00-.185.185v1.888c0 .102.082.185.185.185m0 2.716h2.118a.187.187 0 00.186-.186V6.29a.186.186 0 00-.186-.185h-2.118a.185.185 0 00-.185.185v1.887c0 .102.082.186.185.186m-2.93 0h2.12a.186.186 0 00.184-.186V6.29a.185.185 0 00-.185-.185H8.1a.185.185 0 00-.185.185v1.887c0 .102.083.186.185.186m-2.964 0h2.119a.186.186 0 00.185-.186V6.29a.185.185 0 00-.185-.185H5.136a.186.186 0 00-.186.185v1.887c0 .102.084.186.186.186m5.893 2.715h2.118a.186.186 0 00.186-.185V9.006a.186.186 0 00-.186-.186h-2.118a.185.185 0 00-.185.185v1.888c0 .102.082.185.185.185m-2.93 0h2.12a.185.185 0 00.184-.185V9.006a.185.185 0 00-.184-.186h-2.12a.185.185 0 00-.184.185v1.888c0 .102.083.185.185.185m-2.964 0h2.119a.185.185 0 00.185-.185V9.006a.185.185 0 00-.184-.186h-2.12a.186.186 0 00-.186.186v1.887c0 .102.084.185.186.185m-2.92 0h2.12a.186.186 0 00.184-.185V9.006a.185.185 0 00-.184-.186h-2.12a.185.185 0 00-.184.185v1.888c0 .102.083.185.185.185m23.763-5.169c-.294-.312-.73-.509-1.178-.509h-.088c-.048-1.518-.465-4.213-2.517-5.944-1.692-1.434-4.058-2.09-7.034-1.952a.184.184 0 00-.17.186v.932c0 .104.085.185.19.185 2.292.017 4.238.532 5.662 1.787 1.676 1.44 2.099 3.634 2.099 4.82h-2.228a.185.185 0 00-.185.185v1.888c0 .102.083.185.185.185h2.228c0 1.186-.423 3.38-2.1 4.82-1.424 1.254-3.37 1.77-5.69 1.747a.19.19 0 00-.19.184v.932c0 .1.075.184.17.186 2.976.138 5.342-.518 7.034-1.952 1.755-1.486 2.365-3.68 2.5-5.176h.088c.448 0 .884-.197 1.178-.51.304-.321.447-.758.397-1.202l-.133-1.203c-.058-.52-.508-.9-1.032-.883zm-21.03 8.1C2.37 18.45 0 16.14 0 13.18c0-1.957 1.046-3.789 2.73-4.793a.187.187 0 01.256.069l.462.837a.186.186 0 01-.068.255C2.03 10.3 1.2 11.69 1.2 13.18c0 2.286 1.811 4.148 4.035 4.148.18 0 .352-.012.52-.036a.186.186 0 01.213.153l.158.94a.186.186 0 01-.153.213A5.4 5.4 0 014.235 18.5"/>
    </symbol>
  
    <!-- django icon -->
    <symbol id="django" viewBox="0 0 24 24">
      <g fill="#092E20"><path d="M11.146 0h3.924v18.166c-2.013.382-3.491.535-5.096.535-4.791 0-7.288-2.166-7.288-6.32 0-4.002 2.65-6.6 6.753-6.6.637 0 1.121.05 1.707.203zm0 9.143a3.894 3.894 0 00-1.325-.204c-1.988 0-3.134 1.223-3.134 3.365 0 2.09 1.096 3.236 3.109 3.236.433 0 .79-.025 1.35-.102V9.142zM21.314 6.06v9.098c0 3.134-.229 4.638-.917 5.937-.637 1.249-1.478 2.039-3.211 2.905l-3.644-1.733c1.733-.815 2.574-1.53 3.109-2.625.561-1.121.739-2.421.739-5.835V6.059h3.924zM17.39.021h3.924v4.026H17.39z"/></g>
    </symbol>
    <!-- redis icon -->
    <symbol id="redis" viewBox="0 0 24 24">
      <g fill="#FF4438"><path d="M22.71 13.145c-1.66 2.092-3.452 4.483-7.038 4.483-3.203 0-4.397-2.825-4.48-5.12.701 1.484 2.073 2.685 4.214 2.63 4.117-.133 6.94-3.852 6.94-7.239 0-4.05-3.022-6.972-8.268-6.972-3.752 0-8.4 1.428-11.455 3.685C2.59 6.937 3.885 9.958 4.35 9.626c2.648-1.904 4.748-3.13 6.784-3.744C8.12 9.244.886 17.05 0 18.425c.1 1.261 1.66 4.648 2.424 4.648.232 0 .431-.133.664-.365a100.49 100.49 0 0 0 5.54-6.765c.222 3.104 1.748 6.898 6.014 6.898 3.819 0 7.604-2.756 9.33-8.965.2-.764-.73-1.361-1.261-.73zm-4.349-5.013c0 1.959-1.926 2.922-3.685 2.922-.941 0-1.664-.247-2.235-.568 1.051-1.592 2.092-3.225 3.21-4.973 1.972.334 2.71 1.43 2.71 2.619z"/></g>
    </symbol>
    <!-- rabbitmq icon -->
    <symbol id="rabbitmq" viewBox="0 0 24 24">
      <g fill="#FF6600"><path d="M23.035 9.601h-7.677a.956.956 0 01-.962-.962V.962a.956.956 0 00-.962-.956H10.56a.956.956 0 00-.962.956V8.64a.956.956 0 01-.962.962H5.762a.956.956 0 01-.961-.962V.962A.956.956 0 003.839 0H.959a.956.956 0 00-.956.962v22.076A.956.956 0 00.965 24h22.07a.956.956 0 00.962-.962V10.58a.956.956 0 00-.962-.98zm-3.86 8.152a1.437 1.437 0 01-1.437 1.443h-1.924a1.437 1.437 0 01-1.436-1.443v-1.917a1.437 1.437 0 011.436-1.443h1.924a1.437 1.437 0 011.437 1.443z"/></g>
    </symbol>
    <!-- celery icon -->
    <symbol id="celery" viewBox="0 0 24 24">
      <g fill="#37814A"><path d="M2.303 0A2.298 2.298 0 0 0 0 2.303v19.394A2.298 2.298 0 0 0 2.303 24h19.394A2.298 2.298 0 0 0 24 21.697V2.303A2.298 2.298 0 0 0 21.697 0zm8.177 3.072c4.098 0 7.028 1.438 7.68 1.764l-1.194 2.55c-2.442-1.057-4.993-1.41-5.672-1.41-1.574 0-2.17.922-2.17 1.763v8.494c0 .869.596 1.791 2.17 1.791.679 0 3.23-.38 5.672-1.41l1.194 2.496c-.435.271-3.637 1.818-7.68 1.818-1.112 0-4.64-.244-4.64-4.64V7.713c0-4.397 3.528-4.64 4.64-4.64z"/></g>
    </symbol>
    <!-- sqlalchemy icon -->
    <symbol id="sqlalchemy" viewBox="0 0 24 24">
      <g fill="#D71F00"><path d="M11.8 15.955a44.068 44.068 0 0 1-1.673-.691c-1.736-.757-1.981-.772-2.499-.143-.119.146-.25.236-.287.2-.111-.111.219-.644.617-.993.325-.285.433-.325.791-.285.228.025.985.29 1.682.586 1.573.669 2.034.811 2.635.811.731 0 1.106-.512.876-1.192-.057-.171-.04-.228.074-.228.213 0 .322.797.168 1.255a1.617 1.617 0 0 1-.424.614c-.251.211-.41.257-.879.254a3.853 3.853 0 0 1-1.082-.188h.001Zm.301-2.225c0-.048.179-.134.401-.188l.401-.099.086-1.446c.094-1.599.025-3.172-.148-3.383-.063-.074-.253-.165-.427-.205-.705-.156-.236-.264 1.133-.264 1.368 0 1.803.099 1.152.264-.561.14-.564.148-.564 2.43 0 1.266.046 2.22.111 2.342.092.171.228.207.752.207 1.081 0 1.453-.255 1.747-1.203.088-.284.315-.233.236.054-.037.134-.097.54-.134.91l-.068.669H14.44c-1.286 0-2.339-.04-2.339-.088Zm5.312-.068c0-.086.083-.171.219-.236.183-.086.302-.265.734-1.11.686-1.337 1.767-3.634 1.87-3.978.079-.262.097-.276.392-.31.171-.02.313-.031.316-.025l.527 1.152c.284.628.856 1.824 1.271 2.654.695 1.397.772 1.523 1.005 1.636.142.069.253.174.253.237 0 .099-.122.111-1.175.111-1.056 0-1.175-.012-1.175-.114 0-.068.091-.142.236-.191.134-.043.236-.122.236-.182 0-.057-.139-.432-.31-.834l-.31-.731h-2.35l-.225.495c-.421.928-.43 1.147-.037 1.252.196.054.25.097.227.185-.025.103-.127.117-.867.117-.794.006-.837 0-.837-.128Zm-15.652.025a10.933 10.933 0 0 1-.808-.196l-.549-.154.282-.518.281-.518-.227-.281c-.322-.399-.737-1.272-.74-1.554-.003-.657.851-1.61 1.898-2.122.72-.353 1.291-.362 2.009-.026l.54.253.157-.224c.085-.123.156-.285.156-.356 0-.071.071-.134.157-.134.085 0 .156.023.156.048 0 .063-.629 1.651-.669 1.691-.017.016-.187-.063-.381-.177-.546-.321-1.232-.535-1.764-.549-1.238-.031-1.667 1.178-.794 2.236l.308.373.839-.68c.942-.76 1.05-.777 1.784-.27.825.569.839 1.434.042 2.339-.705.805-1.431 1.027-2.677.819Zm5.984-.165c-.646-.301-1.229-.876-1.565-1.547-.538-1.076-.373-1.765.646-2.695.856-.782 1.556-1.087 2.498-1.087.68 0 .825.037 1.266.307 1.044.646 1.303 1.878.675 3.221-.737 1.577-2.294 2.37-3.52 1.801Zm-3.872-.702c.409-.322.381-.917-.063-1.389-.558-.592-.731-.566-1.713.253-.976.814-.982.783.185 1.155.771.251 1.255.242 1.591-.019Zm6.034-.046c.484-.239.817-1.343.68-2.259-.17-1.13-1.698-1.901-2.819-1.423-1.153.493-1.17 1.804-.037 2.985.791.828 1.471 1.044 2.176.697Zm11.359-1.414c.04-.071-.845-2.003-.928-2.023-.06-.017-.976 1.872-.976 2.014 0 .072 1.861.08 1.904.009Z"/></g>
    </symbol>
    <!-- pydantic icon -->
    <symbol id="pydantic" viewBox="0 0 24 24">
      <g fill="#E92063"><path d="m23.826 17.316-4.23-5.866-6.847-9.496c-.348-.48-1.151-.48-1.497 0l-6.845 9.494-4.233 5.868a.925.925 0 0 0 .46 1.417l11.078 3.626h.002a.92.92 0 0 0 .572 0h.002l11.077-3.626c.28-.092.5-.31.59-.592a.916.916 0 0 0-.13-.825h.002ZM12.001 4.07l4.44 6.158-4.152-1.36c-.032-.01-.066-.008-.098-.016a.8.8 0 0 0-.096-.016c-.032-.004-.062-.016-.094-.016s-.062.012-.094.016a.74.74 0 0 0-.096.016c-.032.006-.066.006-.096.016L7.59 10.221l-.026.008 4.44-6.158h-.002Zm-6.273 8.7 4.834-1.583.516-.168v9.19L2.41 17.372l3.317-4.6Zm7.197 7.437V11.02l5.35 1.752 3.316 4.598-8.666 2.838Z"/></g>
    </symbol>
    <!-- pytest icon -->
    <symbol id="pytest" viewBox="0 0 24 24">
      <g fill="#0A9EDC"><path d="M2.6152 0v.8867h3.8399V0zm5.0215 0v.8867h3.8418V0zm4.957 0v.8867h3.8418V0zm4.9356 0v.8867h3.8418V0zM2.4473 1.8945a.935.935 0 0 0-.9356.9356c0 .517.4185.9375.9356.9375h19.1054c.5171 0 .9356-.4204.9356-.9375a.935.935 0 0 0-.9356-.9356zm.168 2.8477V24H6.455V4.7422zm5.0214 0V20.543h3.8418V4.7422zm4.957 0V15.291h3.8497V4.7422zm4.9356 0v6.4941h3.8418V4.7422z"/></g>
    </symbol>
    <!-- githubactions icon -->
    <symbol id="githubactions" viewBox="0 0 24 24">
      <g fill="#2088FF"><path d="M10.984 13.836a.5.5 0 0 1-.353-.146l-.745-.743a.5.5 0 1 1 .706-.708l.392.391 1.181-1.18a.5.5 0 0 1 .708.707l-1.535 1.533a.504.504 0 0 1-.354.146zm9.353-.147l1.534-1.532a.5.5 0 0 0-.707-.707l-1.181 1.18-.392-.391a.5.5 0 1 0-.706.708l.746.743a.497.497 0 0 0 .706-.001zM4.527 7.452l2.557-1.585A1 1 0 0 0 7.09 4.17L4.533 2.56A1 1 0 0 0 3 3.406v3.196a1.001 1.001 0 0 0 1.527.85zm2.03-2.436L4 6.602V3.406l2.557 1.61zM24 12.5c0 1.93-1.57 3.5-3.5 3.5a3.503 3.503 0 0 1-3.46-3h-2.08a3.503 3.503 0 0 1-3.46 3 3.502 3.502 0 0 1-3.46-3h-.558c-.972 0-1.85-.399-2.482-1.042V17c0 1.654 1.346 3 3 3h.04c.244-1.693 1.7-3 3.46-3 1.93 0 3.5 1.57 3.5 3.5S13.43 24 11.5 24a3.502 3.502 0 0 1-3.46-3H8c-2.206 0-4-1.794-4-4V9.899A5.008 5.008 0 0 1 0 5c0-2.757 2.243-5 5-5s5 2.243 5 5a5.005 5.005 0 0 1-4.952 4.998A2.482 2.482 0 0 0 7.482 12h.558c.244-1.693 1.7-3 3.46-3a3.502 3.502 0 0 1 3.46 3h2.08a3.503 3.503 0 0 1 3.46-3c1.93 0 3.5 1.57 3.5 3.5zm-15 8c0 1.378 1.122 2.5 2.5 2.5s2.5-1.122 2.5-2.5-1.122-2.5-2.5-2.5S9 19.122 9 20.5zM5 9c2.206 0 4-1.794 4-4S7.206 1 5 1 1 2.794 1 5s1.794 4 4 4zm9 3.5c0-1.378-1.122-2.5-2.5-2.5S9 11.122 9 12.5s1.122 2.5 2.5 2.5 2.5-1.122 2.5-2.5zm9 0c0-1.378-1.122-2.5-2.5-2.5S18 11.122 18 12.5s1.122 2.5 2.5 2.5 2.5-1.122 2.5-2.5zm-13 8a.5.5 0 1 0 1 0 .5.5 0 0 0-1 0zm2 0a.5.5 0 1 0 1 0 .5.5 0 0 0-1 0zm12 0c0 1.93-1.57 3.5-3.5 3.5a3.503 3.503 0 0 1-3.46-3.002c-.007.001-.013.005-.021.005l-.506.017h-.017a.5.5 0 0 1-.016-.999l.506-.017c.018-.002.035.006.052.007A3.503 3.503 0 0 1 20.5 17c1.93 0 3.5 1.57 3.5 3.5zm-1 0c0-1.378-1.122-2.5-2.5-2.5S18 19.122 18 20.5s1.122 2.5 2.5 2.5 2.5-1.122 2.5-2.5z"/></g>
    </symbol>
    <!-- claude icon -->
    <symbol id="claude" viewBox="0 0 24 24">
      <g fill="#D97757"><path d="m4.7144 15.9555 4.7174-2.6471.079-.2307-.079-.1275h-.2307l-.7893-.0486-2.6956-.0729-2.3375-.0971-2.2646-.1214-.5707-.1215-.5343-.7042.0546-.3522.4797-.3218.686.0608 1.5179.1032 2.2767.1578 1.6514.0972 2.4468.255h.3886l.0546-.1579-.1336-.0971-.1032-.0972L6.973 9.8356l-2.55-1.6879-1.3356-.9714-.7225-.4918-.3643-.4614-.1578-1.0078.6557-.7225.8803.0607.2246.0607.8925.686 1.9064 1.4754 2.4893 1.8336.3643.3035.1457-.1032.0182-.0728-.164-.2733-1.3539-2.4467-1.445-2.4893-.6435-1.032-.17-.6194c-.0607-.255-.1032-.4674-.1032-.7285L6.287.1335 6.6997 0l.9957.1336.419.3642.6192 1.4147 1.0018 2.2282 1.5543 3.0296.4553.8985.2429.8318.091.255h.1579v-.1457l.1275-1.706.2368-2.0947.2307-2.6957.0789-.7589.3764-.9107.7468-.4918.5828.2793.4797.686-.0668.4433-.2853 1.8517-.5586 2.9021-.3643 1.9429h.2125l.2429-.2429.9835-1.3053 1.6514-2.0643.7286-.8196.85-.9046.5464-.4311h1.0321l.759 1.1293-.34 1.1657-1.0625 1.3478-.8804 1.1414-1.2628 1.7-.7893 1.36.0729.1093.1882-.0183 2.8535-.607 1.5421-.2794 1.8396-.3157.8318.3886.091.3946-.3278.8075-1.967.4857-2.3072.4614-3.4364.8136-.0425.0304.0486.0607 1.5482.1457.6618.0364h1.621l3.0175.2247.7892.522.4736.6376-.079.4857-1.2142.6193-1.6393-.3886-3.825-.9107-1.3113-.3279h-.1822v.1093l1.0929 1.0686 2.0035 1.8092 2.5075 2.3314.1275.5768-.3218.4554-.34-.0486-2.2039-1.6575-.85-.7468-1.9246-1.621h-.1275v.17l.4432.6496 2.3436 3.5214.1214 1.0807-.17.3521-.6071.2125-.6679-.1214-1.3721-1.9246L14.38 17.959l-1.1414-1.9428-.1397.079-.674 7.2552-.3156.3703-.7286.2793-.6071-.4614-.3218-.7468.3218-1.4753.3886-1.9246.3157-1.53.2853-1.9004.17-.6314-.0121-.0425-.1397.0182-1.4328 1.9672-2.1796 2.9446-1.7243 1.8456-.4128.164-.7164-.3704.0667-.6618.4008-.5889 2.386-3.0357 1.4389-1.882.929-1.0868-.0062-.1579h-.0546l-6.3385 4.1164-1.1293.1457-.4857-.4554.0608-.7467.2307-.2429 1.9064-1.3114Z"/></g>
    </symbol>
    <!-- aws icon -->
    <symbol id="aws" viewBox="0 0 128 128">
      <path fill="#f90" d="M108.59 26.148c-1.852 0-3.622.211-5.305.715-1.684.504-3.117 1.223-4.379 2.188a10.829 10.829 0 0 0-3.031 3.453c-.757 1.348-1.137 2.906-1.137 4.676 0 2.187.716 4.25 2.106 6.105 1.386 1.895 3.66 3.324 6.734 4.293l6.106 1.895c2.062.675 3.496 1.391 4.254 2.191.757.801 1.136 1.765 1.136 2.945 0 1.726-.758 3.074-2.191 4-1.43.925-3.492 1.391-6.145 1.391-1.687 0-3.328-.168-5.011-.504a23.102 23.102 0 0 1-4.633-1.476c-.421-.168-.801-.336-1.051-.418a2.357 2.357 0 0 0-.758-.13c-.634 0-.969.423-.969 1.305v2.149a2.919 2.919 0 0 0 .254 1.18c.168.38.629.8 1.305 1.18 1.094.628 2.734 1.179 4.84 1.683 2.105.504 4.297.758 6.484.758 2.15 0 4.129-.297 6.024-.883 1.808-.551 3.367-1.309 4.672-2.36 1.304-1.01 2.316-2.273 3.074-3.707.714-1.429 1.094-3.07 1.094-4.882 0-2.188-.633-4.168-1.938-5.895-1.304-1.727-3.491-3.074-6.523-4.043l-5.98-1.895c-2.23-.713-3.79-1.516-4.634-2.316-.84-.797-1.261-1.808-1.261-2.988 0-1.726.671-2.95 1.98-3.746 1.305-.801 3.199-1.18 5.598-1.18 2.988 0 5.683.547 8.086 1.64.714.337 1.261.508 1.597.508.633 0 .969-.463.969-1.347v-1.98c0-.59-.125-1.051-.379-1.391-.25-.378-.672-.715-1.262-1.051-.422-.254-1.011-.504-1.77-.758a32.528 32.528 0 0 0-2.398-.676c-.886-.168-1.769-.336-2.738-.46a21.347 21.347 0 0 0-2.82-.169zm-86.822.082c-2.316 0-4.508.254-6.57.801-2.063.505-3.831 1.137-5.303 1.895-.59.297-.97.59-1.18.883-.211.296-.293.8-.293 1.476v2.063c0 .882.293 1.304.883 1.304.168 0 .378-.043.674-.125.293-.086.796-.254 1.472-.547a33.416 33.416 0 0 1 4.547-1.433A19.176 19.176 0 0 1 20.547 32c3.242 0 5.513.633 6.863 1.938 1.304 1.303 1.98 3.534 1.98 6.734v3.074c-1.683-.379-3.283-.715-4.843-.926-1.558-.21-3.031-.336-4.461-.336-4.34 0-7.75 1.094-10.316 3.286-2.571 2.187-3.832 5.093-3.832 8.671 0 3.368 1.05 6.063 3.113 8.086 2.066 2.02 4.887 3.032 8.422 3.032 4.97 0 9.097-1.938 12.379-5.813a34.153 34.153 0 0 0 1.304 2.484 13.28 13.28 0 0 0 1.516 1.98c.422.38.844.59 1.266.59.334 0 .714-.128 1.093-.378l2.653-1.77c.546-.42.8-.843.8-1.261a1.86 1.86 0 0 0-.293-.97 22.469 22.469 0 0 1-1.347-3.03c-.297-.925-.465-2.19-.465-3.75h-.086V40c0-4.633-1.176-8.086-3.492-10.36-2.36-2.273-6.025-3.41-11.033-3.41zm19.58 1.012c-.676 0-1.012.379-1.012 1.051 0 .297.129.844.379 1.687l9.894 32.547c.254.8.547 1.387.887 1.641.336.297.84.422 1.598.422h3.62c.759 0 1.347-.125 1.684-.422.34-.293.591-.84.801-1.684l6.485-27.117 6.527 27.16c.168.84.46 1.387.8 1.684.337.292.883.422 1.684.422h3.621c.715 0 1.262-.167 1.598-.422.34-.253.633-.8.887-1.64L90.949 30.02c.168-.46.25-.797.293-1.051.043-.254.086-.466.086-.676 0-.715-.379-1.05-1.055-1.05H86.36c-.757 0-1.308.166-1.644.421-.293.25-.59.8-.84 1.64L76.59 57.517l-6.653-28.211c-.166-.8-.464-1.39-.8-1.64-.336-.298-.884-.423-1.684-.423h-3.367c-.758 0-1.348.167-1.688.422-.335.25-.588.8-.796 1.64l-6.57 27.876-7.075-27.875c-.25-.8-.504-1.39-.84-1.64-.297-.298-.844-.423-1.644-.423h-4.125zM21.64 47.496a31.816 31.816 0 0 1 3.96.25 34.401 34.401 0 0 1 3.872.719v1.765c0 1.435-.168 2.653-.422 3.665-.25 1.01-.758 1.895-1.43 2.695-1.137 1.262-2.484 2.187-4 2.695-1.516.504-2.949.758-4.336.758-1.937 0-3.41-.508-4.422-1.559-1.054-1.01-1.558-2.484-1.558-4.464 0-2.106.675-3.704 2.062-4.84 1.391-1.137 3.454-1.684 6.274-1.684zM118 73.348c-4.432.063-9.664 1.052-13.621 3.832-1.223.883-1.012 2.062.336 1.894 4.508-.547 14.44-1.726 16.21.547 1.77 2.23-1.976 11.62-3.663 15.79-.504 1.26.59 1.769 1.726.8 7.41-6.231 9.348-19.242 7.832-21.137-.757-.925-4.388-1.79-8.82-1.726zM1.63 75.859c-.926.116-1.347 1.236-.368 2.121 16.508 14.902 38.359 23.872 62.613 23.872 17.305 0 37.43-5.43 51.281-15.66 2.273-1.689.298-4.254-2.02-3.204-15.533 6.57-32.421 9.77-47.788 9.77-22.778 0-44.8-6.273-62.653-16.633-.39-.231-.755-.304-1.064-.266z"/>
    </symbol>
  </defs>
</svg>